<svg width="68" height="68" viewBox="0 0 68 68" fill="none" xmlns="http://www.w3.org/2000/svg">
<g clip-path="url(#clip0_58_66)">
<path d="M34 0C24.7733 0 23.613 0.0425 19.9878 0.204C16.3625 0.374 13.8932 0.9435 11.73 1.785C9.45984 2.63638 7.4041 3.97544 5.70775 5.70775C3.97544 7.4041 2.63638 9.45984 1.785 11.73C0.9435 13.889 0.36975 16.3625 0.204 19.975C0.0425 23.6087 0 24.7648 0 34.0043C0 43.2353 0.0425 44.3913 0.204 48.0165C0.374 51.6375 0.9435 54.1068 1.785 56.27C2.65625 58.5055 3.8165 60.401 5.70775 62.2922C7.59475 64.1835 9.49025 65.348 11.7257 66.215C13.8933 67.0565 16.3583 67.6302 19.9793 67.796C23.6088 67.9575 24.7647 68 34 68C43.2352 68 44.387 67.9575 48.0165 67.796C51.6333 67.626 54.111 67.0565 56.2743 66.215C58.5429 65.3631 60.5971 64.024 62.2922 62.2922C64.1835 60.401 65.3438 58.5055 66.215 56.27C67.0522 54.1068 67.626 51.6375 67.796 48.0165C67.9575 44.3913 68 43.2352 68 34C68 24.7647 67.9575 23.6088 67.796 19.9793C67.626 16.3625 67.0522 13.889 66.215 11.73C65.3636 9.45984 64.0246 7.4041 62.2922 5.70775C60.5959 3.97544 58.5402 2.63638 56.27 1.785C54.1025 0.9435 51.629 0.36975 48.0122 0.204C44.3828 0.0425 43.231 0 33.9915 0H34ZM30.9527 6.1285H34.0043C43.0823 6.1285 44.1575 6.15825 47.7402 6.324C51.0552 6.47275 52.8573 7.0295 54.0557 7.49275C55.641 8.109 56.7757 8.8485 57.9658 10.0385C59.1558 11.2285 59.891 12.359 60.5073 13.9485C60.9748 15.1427 61.5273 16.9448 61.676 20.2598C61.8418 23.8425 61.8758 24.9178 61.8758 33.9915C61.8758 43.0653 61.8418 44.1447 61.676 47.7275C61.5273 51.0425 60.9705 52.8403 60.5073 54.0387C59.9583 55.5131 59.0888 56.8471 57.9615 57.9445C56.7715 59.1345 55.641 59.8698 54.0515 60.486C52.8615 60.9535 51.0595 61.506 47.7402 61.659C44.1575 61.8205 43.0823 61.8587 34.0043 61.8587C24.9263 61.8587 23.8468 61.8205 20.264 61.659C16.949 61.506 15.1512 60.9535 13.9528 60.486C12.4773 59.9388 11.1418 59.0708 10.0427 57.9445C8.91341 56.8463 8.04239 55.5107 7.49275 54.0345C7.0295 52.8402 6.47275 51.0382 6.324 47.7233C6.1625 44.1405 6.1285 43.0653 6.1285 33.983C6.1285 24.9007 6.1625 23.834 6.324 20.2512C6.477 16.9362 7.0295 15.1343 7.497 13.9358C8.11325 12.3505 8.85275 11.2157 10.0427 10.0258C11.2327 8.83575 12.3632 8.1005 13.9528 7.48425C15.1512 7.01675 16.949 6.46425 20.264 6.31125C23.4005 6.16675 24.616 6.12425 30.9527 6.12V6.1285ZM52.1517 11.7725C51.616 11.7725 51.0854 11.878 50.5904 12.0831C50.0954 12.2881 49.6456 12.5886 49.2668 12.9675C48.8879 13.3464 48.5874 13.7961 48.3823 14.2912C48.1773 14.7862 48.0718 15.3167 48.0718 15.8525C48.0718 16.3883 48.1773 16.9188 48.3823 17.4138C48.5874 17.9089 48.8879 18.3586 49.2668 18.7375C49.6456 19.1164 50.0954 19.4169 50.5904 19.6219C51.0854 19.827 51.616 19.9325 52.1517 19.9325C53.2338 19.9325 54.2716 19.5026 55.0367 18.7375C55.8019 17.9723 56.2318 16.9346 56.2318 15.8525C56.2318 14.7704 55.8019 13.7327 55.0367 12.9675C54.2716 12.2024 53.2338 11.7725 52.1517 11.7725ZM34.0043 16.541C31.6883 16.5049 29.3883 16.9298 27.2382 17.7911C25.088 18.6524 23.1307 19.9328 21.4801 21.5578C19.8296 23.1828 18.5188 25.1199 17.6241 27.2564C16.7294 29.3928 16.2686 31.6859 16.2686 34.0021C16.2686 36.3184 16.7294 38.6115 17.6241 40.7479C18.5188 42.8843 19.8296 44.8215 21.4801 46.4464C23.1307 48.0714 25.088 49.3519 27.2382 50.2132C29.3883 51.0744 31.6883 51.4994 34.0043 51.4632C38.5881 51.3917 42.9599 49.5206 46.1762 46.2538C49.3924 42.987 51.1951 38.5865 51.1951 34.0021C51.1951 29.4178 49.3924 25.0173 46.1762 21.7504C42.9599 18.4836 38.5881 16.6125 34.0043 16.541ZM34.0043 22.6653C35.4928 22.6653 36.9667 22.9584 38.3419 23.5281C39.7171 24.0977 40.9666 24.9326 42.0191 25.9851C43.0717 27.0377 43.9066 28.2872 44.4762 29.6624C45.0458 31.0376 45.339 32.5115 45.339 34C45.339 35.4885 45.0458 36.9624 44.4762 38.3376C43.9066 39.7128 43.0717 40.9623 42.0191 42.0149C40.9666 43.0674 39.7171 43.9023 38.3419 44.4719C36.9667 45.0416 35.4928 45.3348 34.0043 45.3347C30.9981 45.3347 28.115 44.1406 25.9894 42.0149C23.8637 39.8892 22.6695 37.0062 22.6695 34C22.6695 30.9938 23.8637 28.1108 25.9894 25.9851C28.115 23.8594 30.9981 22.6653 34.0043 22.6653Z" fill="white"/>
</g>
<defs>
<clipPath id="clip0_58_66">
<rect width="68" height="68" fill="white"/>
</clipPath>
</defs>
</svg>
