<svg width="68" height="68" viewBox="0 0 68 68" fill="none" xmlns="http://www.w3.org/2000/svg">
<g clip-path="url(#clip0_58_64)">
<path d="M68.0007 34.2081C68.0007 15.3126 52.7772 -0.00439453 34.0007 -0.00439453C15.2157 -0.000144531 -0.0078125 15.3126 -0.0078125 34.2124C-0.0078125 51.2846 12.4277 65.4371 28.6797 68.0041V44.0979H20.0522V34.2124H28.6882V26.6686C28.6882 18.0964 33.7669 13.3619 41.5317 13.3619C45.2547 13.3619 49.1434 14.0291 49.1434 14.0291V22.4441H44.8552C40.6349 22.4441 39.3174 25.0834 39.3174 27.7906V34.2081H48.7439L47.2394 44.0936H39.3132V67.9999C55.5652 65.4329 68.0007 51.2804 68.0007 34.2081Z" fill="white"/>
</g>
<defs>
<clipPath id="clip0_58_64">
<rect width="68" height="68" fill="white"/>
</clipPath>
</defs>
</svg>
