<svg width="79" height="56" viewBox="0 0 79 56" fill="none" xmlns="http://www.w3.org/2000/svg">
<path d="M39.7543 0H40.1938C44.2526 0.0149479 64.8186 0.164428 70.3638 1.66919C72.0401 2.12843 73.5677 3.02358 74.7938 4.26519C76.0199 5.50679 76.9016 7.05137 77.3508 8.74455C77.8495 10.638 78.2001 13.1442 78.4371 15.7302L78.4865 16.2484L78.5951 17.5439L78.6346 18.0621C78.9556 22.6162 78.9951 26.8814 79 27.8131V28.1868C78.9951 29.1535 78.9506 33.7076 78.5951 38.4511L78.5556 38.9743L78.5112 39.4925C78.2643 42.3426 77.8989 45.1727 77.3508 47.2554C76.9016 48.9486 76.0199 50.4932 74.7938 51.7348C73.5677 52.9764 72.0401 53.8716 70.3638 54.3308C64.6359 55.8854 42.8651 55.995 39.8481 56H39.1469C37.6212 56 31.3106 55.9701 24.694 55.7409L23.8546 55.711L23.425 55.6911L22.5806 55.6562L21.7362 55.6213C16.2553 55.3772 11.036 54.9835 8.63129 54.3258C6.95553 53.867 5.42838 52.9726 4.20233 51.7319C2.97628 50.4913 2.09424 48.9477 1.64429 47.2554C1.09619 45.1777 0.730796 42.3426 0.483905 39.4925L0.444403 38.9693L0.4049 38.4511C0.159804 35.0749 0.0247647 31.6916 0 28.3064L0 27.6936C0.00987562 26.6223 0.0493781 22.9202 0.31602 18.8344L0.350584 18.3212L0.365398 18.0621L0.4049 17.5439L0.513532 16.2484L0.56291 15.7302C0.799925 13.1442 1.15051 10.633 1.64923 8.74455C2.09842 7.05137 2.98013 5.50679 4.20622 4.26519C5.43232 3.02358 6.95988 2.12843 8.63623 1.66919C11.0409 1.02144 16.2602 0.622831 21.7412 0.373698L22.5806 0.33882L23.4299 0.308925L23.8546 0.293977L24.6989 0.259099C29.3983 0.106647 34.0995 0.0219324 38.8013 0.00498288L39.7543 0ZM31.602 15.9943V40.0007L52.1284 28.0025L31.602 15.9943Z" fill="white"/>
</svg>
